PathFileType        4      (X/Y/Z)      C:\Users\pc\Desktop\IMUTRC\Sujet_05\Sujet_05_velo_80.trc         
DataRate	CameraRate	NumFrames	NumMarkers	Units	OrigDataRate	OrigDataStartFrame	OrigNumFrames
60.0	60.0	4	64	mm	60.0	1	990
Frame#	Time	pHipOrigin			pRightASI			pLeftASI			pRightCSI			pLeftCSI			pRightIschialTub			pLeftIschialTub			pSacrum			pL5SpinalProcess			pL3SpinalProcess			pT12SpinalProcess			pIJ			pT4SpinalProcess			pT8SpinalProcess			pPX			pC7SpinalProcess			pTopOfHead			pRightAuricularis			pLeftAuricularis			pBackOfHead			pRightAcromion			pLeftAcromion			pRightArmLatEpicondyle			pRightArmMedEpicondyle			pLeftArmLatEpicondyle			pLeftArmMedEpicondyle			pRightUlnarStyloid			pRightRadialStyloid			pRightOlecranon			pLeftUlnarStyloid			pLeftRadialStyloid			pLeftOlecranon			pRightTopOfHand			pRightPinky			pRightBallHand			pLeftTopOfHand			pLeftPinky			pLeftBallHand			pRightGreaterTrochanter			pRightKneeLatEpicondyle			pRightKneeMedEpicondyle			pRightPatella			pLeftGreaterTrochanter			pLeftKneeLatEpicondyle			pLeftKneeMedEpicondyle			pLeftPatella			pRightTibialTub			pRightLatMalleolus			pRightMedMalleolus			pLeftTibialTub			pLeftLatMalleolus			pLeftMedMalleolus			pRightHeelFoot			pRightFirstMetatarsal			pRightFifthMetatarsal			pRightPivotFoot			pRightHeelCenter			pRightToe			pLeftHeelFoot			pLeftFirstMetatarsal			pLeftFifthMetatarsal			pLeftPivotFoot			pLeftHeelCenter			pLeftToe			
		X1	Y1	Z1	X2	Y2	Z2	X3	Y3	Z3	X4	Y4	Z4	X5	Y5	Z5	X6	Y6	Z6	X7	Y7	Z7	X8	Y8	Z8	X9	Y9	Z9	X10	Y10	Z10	X11	Y11	Z11	X12	Y12	Z12	X13	Y13	Z13	X14	Y14	Z14	X15	Y15	Z15	X16	Y16	Z16	X17	Y17	Z17	X18	Y18	Z18	X19	Y19	Z19	X20	Y20	Z20	X21	Y21	Z21	X22	Y22	Z22	X23	Y23	Z23	X24	Y24	Z24	X25	Y25	Z25	X26	Y26	Z26	X27	Y27	Z27	X28	Y28	Z28	X29	Y29	Z29	X30	Y30	Z30	X31	Y31	Z31	X32	Y32	Z32	X33	Y33	Z33	X34	Y34	Z34	X35	Y35	Z35	X36	Y36	Z36	X37	Y37	Z37	X38	Y38	Z38	X39	Y39	Z39	X40	Y40	Z40	X41	Y41	Z41	X42	Y42	Z42	X43	Y43	Z43	X44	Y44	Z44	X45	Y45	Z45	X46	Y46	Z46	X47	Y47	Z47	X48	Y48	Z48	X49	Y49	Z49	X50	Y50	Z50	X51	Y51	Z51	X52	Y52	Z52	X53	Y53	Z53	X54	Y54	Z54	X55	Y55	Z55	X56	Y56	Z56	X57	Y57	Z57	X58	Y58	Z58	X59	Y59	Z59	X60	Y60	Z60	X61	Y61	Z61	X62	Y62	Z62	X63	Y63	Z63	X64	Y64	Z64	
1	0.0	0.0	1249.99512	7.654012613289058E-14	65.44143000000001	1348.12829	118.94227000000008	61.26801999999999	1335.14434	-130.59303999999992	24.171020000000006	1409.80206	95.40886000000009	20.751139999999992	1399.02074	-112.21843999999992	-51.70395	1200.37788	55.47161000000007	-53.38491	1194.98722	-48.28406999999993	-62.13748	1270.45644	-0.0579599999999184	-25.27233	1369.80685	-5.7384399999999145	33.15545	1474.83774	-5.912329999999911	93.66993	1566.76876	-3.41987999999991	354.50824	1592.27295	11.302990000000076	242.57962	1699.50647	7.999040000000089	167.11041	1647.04899	1.7389200000000906	254.46226	1516.34002	2.8402400000000774	292.19687	1732.43006	12.868020000000088	571.81553	1780.83006	8.346830000000073	475.94296	1740.48707	84.39568000000007	467.53817	1751.26838	-61.38394999999992	452.98919	1800.01616	16.57772000000008	276.89435	1651.04851	204.26538000000008	303.90561	1666.17713	-186.58632999999992	358.10201	1402.61452	179.92047000000005	343.90081	1399.8902	124.39089000000007	393.46009	1425.33643	-175.28333999999995	367.78201	1413.74362	-125.37627999999994	461.45194	1187.39393	172.67496000000006	503.59182	1213.36183	179.16693000000006	327.38106	1393.68805	150.82250000000005	490.66583	1207.15968	-183.97794999999994	532.28404	1233.47537	-192.03495999999996	357.6383	1412.12062	-147.75040999999993	513.09793	1128.85022	338.16237	486.55039	1124.61885	256.20118	490.60787	1167.16447	197.54154000000005	605.66655	1159.91896	-328.83016	548.86176	1150.23896	-264.60597	528.22655	1188.61118	-206.58393999999996	30.25724000000001	1239.56159	148.61987000000008	368.18776	1113.43178	119.34802000000005	370.10057	1119.11226	49.15353000000005	380.59207	1154.12256	85.26514000000005	-7.535330000000009	1210.75345	-147.8083699999999	173.13867	897.22581	-152.85124999999994	197.71544	904.0076	-87.17795999999996	216.78561	921.86054	-131.40453999999994	392.82249	1071.00208	80.57005000000004	149.25747	783.38438	83.98993000000003	151.86586	786.68833	24.46084000000004	236.26154	871.72162	-129.49172999999996	172.15328	500.34583	-131.46250999999998	185.8328	502.43254	-73.38250999999998	63.876400000000004	751.38821	58.94946000000004	178.93508	639.51756	14.780840000000028	183.10849	639.69145	93.09029000000002	196.9619	624.15708	52.05173000000002	93.95975	726.4057	57.38443000000004	255.09986	568.16379	49.03760000000002	119.40598	429.91949	-99.52429999999998	276.4886	389.34464	-62.48526999999999	275.32932	387.02608	-140.85269	297.41363	382.33099	-100.74154999999999	157.89412	422.50009	-99.87208999999999	375.3753	361.23207	-101.26323	
2	0.017	0.0	1249.99512	7.654012613289058E-14	65.67329000000001	1348.93979	118.13077000000008	60.514489999999995	1334.62266	-131.28860999999992	24.171020000000006	1410.3817	94.42347000000008	19.939639999999994	1398.49907	-113.08789999999992	-51.2982	1200.55177	55.99329000000007	-53.44287	1194.58148	-47.76238999999993	-62.19544	1270.28255	0.11593000000008159	-25.56215	1369.74889	-6.202159999999915	32.7497	1474.89571	-6.897719999999911	93.26419	1566.88468	-4.8110199999999095	354.10249	1592.21498	9.158320000000076	242.23184	1699.56444	6.144190000000089	166.70466	1647.10695	0.11593000000009064	253.99855	1516.34002	0.9274300000000772	291.84908	1732.43006	10.83928000000009	571.52571	1780.65617	7.129580000000074	475.24739	1740.4291	82.71472000000007	467.59614	1751.15246	-63.06490999999992	452.69937	1799.9582	14.780840000000081	276.60453	1651.28037	202.41053000000008	303.03615	1666.40899	-188.5571099999999	357.40644	1402.55655	178.35544000000004	343.32117	1399.83224	122.88382000000007	392.4747	1425.27847	-177.25411999999994	367.02848	1413.85954	-127.17315999999994	460.69841	1187.278	170.70418000000006	502.83829	1213.18794	177.25412000000006	326.74345	1393.68805	149.25747000000007	489.62248	1207.04375	-185.71686999999994	531.24068	1233.35944	-193.77387999999993	356.76884	1412.17859	-149.60525999999993	512.51829	1128.32855	336.0177	485.91278	1124.32903	254.05651000000003	489.85434	1166.93262	195.51280000000006	604.62319	1159.62914	-330.45315	547.81841	1150.00711	-266.22896	527.1832	1188.49525	-208.32285999999993	31.41652000000001	1241.35848	148.5619100000001	372.65099	1124.8507	118.18873000000005	373.98417	1130.06747	47.936280000000046	383.66417	1165.59944	83.70011000000004	-8.926470000000009	1209.36231	-147.1127999999999	166.35687	892.76257	-148.04022999999995	191.51328	900.23994	-82.59879999999995	210.58346	916.99155	-127.28908999999996	398.79279	1083.29047	79.52670000000005	168.21173	785.18126	84.80143000000002	170.64622	788.25336	25.27233000000004	228.55232	866.44689	-125.55016999999995	151.51807	497.62152	-136.50537999999997	165.13963	497.91134	-78.42537999999999	84.16383	750.63468	59.645030000000034	202.87424	642.82151	15.070660000000027	207.04765	642.82151	93.38011000000003	221.42274	627.92475	52.28359000000002	115.11664	726.63756	58.022030000000036	281.35759	573.9602	49.09557000000002	96.39424	428.81817	-103.98753999999997	252.1437	383.43231	-66.94849999999998	250.75256	380.65003	-145.31592	272.7789	375.5492	-105.20477999999999	134.59257	420.12356	-104.33531999999998	349.92908	351.95782	-105.72646	
3	0.033	0.0	1249.99512	7.654012613289058E-14	65.90515000000002	1349.69332	117.37724000000009	59.760949999999994	1334.10099	-131.98417999999992	24.171020000000006	1410.96134	93.49604000000008	19.070179999999993	1397.91943	-113.95735999999991	-50.95042	1200.72567	56.45700000000007	-53.50083	1194.17573	-47.298679999999926	-62.25341	1270.16662	0.2898200000000816	-25.85197	1369.69092	-6.723829999999915	32.34395	1474.89571	-7.8831099999999115	92.80047	1566.94265	-6.2021599999999095	353.69674	1592.21498	6.955690000000076	241.82609	1699.56444	4.2313800000000885	166.29891	1647.16492	-1.5650299999999093	253.53483	1516.34002	-0.9853899999999227	291.55926	1732.48803	8.810540000000088	571.23589	1780.48227	5.9123300000000745	474.60979	1740.37114	81.09173000000007	467.6541	1750.97856	-64.80382999999992	452.35159	1799.84227	12.983950000000082	276.31471	1651.57019	200.55567000000008	302.10872	1666.69881	-190.5858599999999	356.71087	1402.49859	176.84837000000005	342.74153	1399.83224	121.31879000000008	391.43135	1425.2205	-179.28285999999994	366.27495	1413.91751	-128.97004999999993	459.94488	1187.10411	168.73340000000005	502.08476	1213.01405	175.34131000000005	326.10585	1393.68805	147.75041000000004	488.63709	1206.98579	-187.39782999999994	530.25529	1233.24351	-195.57076999999995	355.84141	1412.17859	-151.46010999999993	511.93865	1127.80687	333.87303	485.27518	1123.98124	251.91184000000004	489.15877	1166.75872	193.48406000000006	603.57984	1159.28136	-332.13411	546.77505	1149.77525	-267.90992	526.19781	1188.32136	-210.00381999999993	32.459880000000005	1243.21333	148.44598000000008	376.76644	1136.32759	116.85556000000004	377.51997	1141.08064	46.54515000000005	386.38848	1177.13429	82.07712000000004	-10.31760000000001	1207.97118	-146.4172399999999	159.57508	888.47323	-143.11327999999995	185.25316	896.64617	-78.01963999999995	204.32334	912.29646	-123.05771999999996	404.70512	1095.69478	78.42538000000005	187.57172	787.67372	85.67089000000003	189.83232	790.45599	26.083830000000038	220.78513	861.17216	-121.60860999999996	130.99879	495.65074	-141.54824999999997	144.50442	494.02775	-83.41028999999999	104.56718	749.93911	60.39856000000004	226.8134	646.29936	15.418440000000025	230.98681	646.12546	93.72790000000003	245.82561	631.8663	52.573410000000024	136.27352	726.98534	58.601670000000034	307.55734	579.87254	49.15353000000002	73.44047	427.77482	-108.45076999999998	227.74082	377.57794	-71.41172999999999	226.11783	374.38991	-149.72118999999998	247.97028	368.82536	-109.66801999999998	111.29101	417.86297	-108.85651999999997	324.36692	342.74153	-110.13173	
4	0.05	0.0	1249.99512	7.654012613289058E-14	66.13700000000001	1350.15703	116.85556000000008	59.123349999999995	1333.86913	-132.3899299999999	24.228980000000007	1411.1932	92.97436000000009	18.374609999999993	1397.68757	-114.36310999999992	-50.6606	1200.72567	56.74682000000007	-53.61676	1194.00183	-46.950899999999926	-62.25341	1270.05069	0.4637100000000816	-26.08383	1369.63296	-6.897719999999914	32.05413	1474.89571	-8.462749999999911	92.56862	1566.94265	-7.07161999999991	353.46489	1592.04109	5.042870000000076	241.71016	1699.50647	2.6663500000000893	166.12502	1647.16492	-2.8402399999999095	253.18705	1516.28205	-2.4924499999999226	291.44333	1732.31413	7.013650000000088	571.23589	1780.19245	4.405270000000074	474.31997	1740.25521	79.35281000000008	467.82799	1750.68874	-66.54274999999991	452.29362	1799.61042	11.129100000000081	276.43064	1651.68611	198.99065000000007	301.41315	1666.64084	-192.2668099999999	356.36309	1402.38266	175.68909000000005	342.39375	1399.65835	120.10155000000007	390.67782	1425.04661	-180.84788999999995	365.75327	1413.85954	-130.47711999999996	459.53913	1186.93022	167.16837000000007	501.67901	1212.78219	173.77628000000007	325.75806	1393.57212	146.53316000000007	487.94152	1206.81189	-188.78896999999995	529.55972	1233.06962	-197.01986999999994	355.20381	1412.06266	-152.96717999999996	511.64883	1127.34316	332.19207	484.92739	1123.57549	250.17292000000003	488.75302	1166.4689	191.80310000000006	602.94223	1158.99154	-333.46728	546.07948	1149.54339	-269.2431	525.50224	1188.14746	-211.39495999999994	33.32934000000001	1244.31465	148.27209000000008	379.78057	1145.19609	115.34850000000004	380.12836	1149.77525	45.03808000000005	388.35925	1186.11872	80.39616000000004	-11.245030000000009	1207.27561	-146.01148999999992	155.69149	886.2706	-140.33100999999994	181.77532	894.79132	-75.41124999999995	200.72957	909.86197	-120.73914999999995	409.86392	1105.72256	77.09221000000004	206.98969	788.1954	85.90275000000003	208.96046	790.86174	26.315690000000036	215.62633	857.52042	-119.57986999999996	111.40693999999999	496.23039	-145.19998999999999	124.73867	493.21625	-87.11998999999999	125.31831	746.86701	60.45652000000003	251.44813	648.27014	14.954730000000023	255.73747	647.98032	93.26419000000003	271.09795	634.47469	52.05173000000002	157.89412	725.18845	58.601670000000034	334.80046	584.97337	48.40000000000001	51.356159999999996	429.91949	-111.75471999999998	203.80166	374.44788	-74.59975999999999	202.00478	370.97003	-152.90920999999997	223.68334	364.82584	-112.85603999999998	88.85892	418.67446	-112.10250999999997	299.15255	336.0177	-113.31975	
